<?xml version="1.0" standalone="no"?>
<!DOCTYPE svg PUBLIC "-//W3C//DTD SVG 20010904//EN"
 "http://www.w3.org/TR/2001/REC-SVG-20010904/DTD/svg10.dtd">
<svg version="1.0" xmlns="http://www.w3.org/2000/svg"
 width="512.000000pt" height="512.000000pt" viewBox="0 0 512.000000 512.000000"
 preserveAspectRatio="xMidYMid meet">

<g transform="translate(0.000000,512.000000) scale(0.100000,-0.100000)"
fill="#000000" stroke="none">
<path d="M2200 4940 c-20 -20 -20 -33 -20 -573 l0 -553 -57 -18 c-88 -28 -259
-119 -348 -186 l-80 -60 -3 152 c-3 170 -9 188 -67 188 -62 0 -65 -11 -65
-259 l0 -222 -54 -72 c-30 -40 -69 -99 -87 -132 l-34 -60 -3 354 c-2 313 -4
357 -19 373 -21 23 -75 23 -96 0 -16 -17 -17 -123 -17 -1314 0 -1242 1 -1296
18 -1311 24 -22 75 -22 95 1 15 16 17 60 19 373 l3 354 34 -60 c18 -33 57 -92
87 -132 l54 -72 0 -218 c0 -247 4 -263 64 -263 59 0 65 17 68 188 l3 152 80
-60 c88 -66 260 -158 348 -186 l57 -18 0 -548 0 -549 26 -25 c19 -20 31 -24
52 -19 54 13 52 0 52 415 0 213 3 455 7 539 l6 152 36 -5 c20 -3 57 -8 83 -12
l47 -6 3 -525 3 -525 24 -19 c29 -24 53 -24 82 0 l24 19 3 525 3 525 47 6 c26
4 63 9 83 12 l36 5 6 -152 c4 -84 7 -326 7 -539 0 -299 3 -390 13 -398 26 -22
63 -24 86 -5 l23 18 5 556 6 556 54 17 c89 28 250 114 338 181 46 35 86 60 89
57 3 -3 6 -72 6 -153 0 -165 5 -179 65 -179 61 0 65 16 65 263 l0 219 43 56
c24 31 64 90 88 131 l44 74 3 -353 c2 -312 4 -356 19 -372 21 -23 75 -23 96 0
16 17 17 123 17 1314 0 1242 -1 1296 -18 1311 -24 22 -75 22 -95 -1 -15 -16
-17 -60 -19 -372 l-3 -353 -44 74 c-24 41 -64 100 -88 131 l-43 56 0 225 c0
204 -2 225 -18 240 -23 21 -76 22 -96 1 -13 -12 -16 -42 -18 -142 -1 -117 -3
-154 -7 -175 0 -4 -25 12 -54 36 -95 77 -278 176 -384 208 l-43 12 -2 552 c-3
528 -4 554 -22 574 -24 27 -67 27 -91 1 -18 -19 -19 -53 -23 -553 -2 -293 -5
-533 -6 -534 0 -1 -38 3 -84 9 l-82 11 0 513 c0 371 -3 520 -12 539 -21 46
-95 46 -116 0 -9 -19 -12 -168 -12 -539 l0 -513 -82 -11 c-46 -6 -84 -10 -84
-9 -1 1 -4 241 -6 534 -4 500 -5 534 -23 553 -23 26 -69 26 -95 0z m468 -1210
c199 -22 388 -89 549 -196 105 -69 250 -212 316 -312 376 -564 209 -1318 -368
-1668 -300 -183 -647 -220 -986 -105 -341 115 -619 393 -732 734 -86 257 -80
559 17 802 175 443 594 737 1069 754 21 0 81 -4 135 -9z"/>
<path d="M2246 3278 c-54 -11 -95 -44 -117 -92 -17 -38 -19 -77 -19 -626 0
-549 2 -588 19 -626 23 -51 70 -85 126 -92 101 -11 94 -16 419 306 306 304
336 341 336 412 0 71 -30 108 -337 413 -165 163 -304 297 -309 297 -5 0 -25 4
-44 8 -19 5 -52 5 -74 0z m336 -415 c159 -159 288 -295 288 -303 0 -8 -131
-146 -290 -305 -250 -249 -292 -288 -308 -279 -16 10 -17 51 -20 580 -1 313 0
575 3 582 2 6 12 12 22 12 10 0 145 -127 305 -287z"/>
<path d="M334 4216 c-19 -14 -19 -42 -19 -1649 0 -1588 1 -1636 19 -1656 24
-27 70 -27 96 -1 20 20 20 33 20 1648 0 1803 5 1672 -64 1672 -18 0 -41 -6
-52 -14z"/>
<path d="M646 4214 c-14 -14 -16 -178 -16 -1653 0 -1574 1 -1639 18 -1654 27
-25 78 -22 96 5 14 20 16 193 16 1648 0 1804 5 1670 -65 1670 -18 0 -41 -7
-49 -16z"/>
<path d="M4377 4212 c-16 -17 -17 -146 -17 -1648 0 -1459 2 -1632 16 -1652 19
-28 74 -30 97 -4 16 17 17 146 17 1655 0 1474 -2 1637 -16 1651 -21 22 -77 20
-97 -2z"/>
<path d="M4686 4208 c-14 -20 -16 -193 -16 -1648 0 -1455 2 -1628 16 -1648 20
-29 74 -30 99 -2 18 20 19 83 23 1559 3 846 1 1581 -3 1635 -8 108 -18 126
-70 126 -24 0 -39 -7 -49 -22z"/>
<path d="M20 3500 c-20 -20 -20 -33 -20 -930 0 -673 3 -916 12 -935 21 -46
101 -46 118 1 6 16 10 374 10 932 0 1010 4 952 -66 952 -21 0 -42 -8 -54 -20z"/>
<path d="M960 3510 c-20 -12 -28 -477 -22 -1285 5 -652 2 -625 68 -625 68 0
64 -57 64 966 0 879 -1 922 -18 937 -20 19 -68 22 -92 7z"/>
<path d="M4067 3502 c-16 -17 -17 -97 -17 -938 0 -1022 -4 -964 65 -964 69 0
65 -58 65 966 0 879 -1 922 -18 937 -25 22 -75 21 -95 -1z"/>
<path d="M4996 3498 c-14 -20 -16 -126 -16 -938 0 -1014 -4 -960 63 -960 38 0
50 7 66 37 8 16 11 266 11 932 0 898 0 911 -20 931 -28 28 -84 27 -104 -2z"/>
</g>
</svg>
